<mxfile host="65bd71144e">
    <diagram id="ah0qfB-jO9zs_YH4Sic8" name="Page-1">
        <mxGraphModel dx="3389" dy="2249" grid="1" gridSize="10" guides="1" tooltips="1" connect="1" arrows="1" fold="1" page="1" pageScale="1" pageWidth="1169" pageHeight="827" math="0" shadow="0">
            <root>
                <mxCell id="0"/>
                <mxCell id="1" parent="0"/>
                <mxCell id="77" value="AWS Cloud" style="sketch=0;outlineConnect=0;gradientColor=none;html=1;whiteSpace=wrap;fontSize=12;fontStyle=0;shape=mxgraph.aws4.group;grIcon=mxgraph.aws4.group_aws_cloud;strokeColor=#AAB7B8;fillColor=none;verticalAlign=top;align=left;spacingLeft=30;fontColor=#AAB7B8;dashed=0;" vertex="1" parent="1">
                    <mxGeometry x="1370" y="130" width="770" height="1050" as="geometry"/>
                </mxCell>
                <mxCell id="183" style="edgeStyle=entityRelationEdgeStyle;html=1;fontSize=12;fontColor=#FFFFFF;startArrow=none;startFill=0;endArrow=block;endFill=1;" edge="1" parent="1" source="3" target="181">
                    <mxGeometry relative="1" as="geometry"/>
                </mxCell>
                <mxCell id="184" value="&amp;lt;&amp;lt; push &amp;gt;&amp;gt;" style="edgeLabel;html=1;align=center;verticalAlign=middle;resizable=0;points=[];fontSize=12;fontColor=#FFFFFF;" vertex="1" connectable="0" parent="183">
                    <mxGeometry x="-0.0029" y="-2" relative="1" as="geometry">
                        <mxPoint y="-8" as="offset"/>
                    </mxGeometry>
                </mxCell>
                <mxCell id="3" value="Developer" style="sketch=0;outlineConnect=0;fontColor=#FFFFFF;gradientColor=none;strokeColor=#232F3E;fillColor=#ffffff;dashed=0;verticalLabelPosition=bottom;verticalAlign=top;align=center;html=1;fontSize=12;fontStyle=0;aspect=fixed;shape=mxgraph.aws4.resourceIcon;resIcon=mxgraph.aws4.user;" vertex="1" parent="1">
                    <mxGeometry x="-250" y="68.13" width="60" height="60" as="geometry"/>
                </mxCell>
                <mxCell id="8" style="edgeStyle=none;html=1;fontColor=#FFFFFF;" edge="1" parent="1" source="4" target="6">
                    <mxGeometry relative="1" as="geometry"/>
                </mxCell>
                <mxCell id="178" style="edgeStyle=entityRelationEdgeStyle;html=1;fontSize=12;fontColor=#FFFFFF;startArrow=none;startFill=0;endArrow=block;endFill=0;" edge="1" parent="1" source="4" target="177">
                    <mxGeometry relative="1" as="geometry"/>
                </mxCell>
                <mxCell id="4" value="Content Author / Editor" style="sketch=0;outlineConnect=0;fontColor=#FFFFFF;gradientColor=none;strokeColor=#232F3E;fillColor=#ffffff;dashed=0;verticalLabelPosition=bottom;verticalAlign=top;align=center;html=1;fontSize=12;fontStyle=0;aspect=fixed;shape=mxgraph.aws4.resourceIcon;resIcon=mxgraph.aws4.user;" vertex="1" parent="1">
                    <mxGeometry x="-250" y="800" width="60" height="60" as="geometry"/>
                </mxCell>
                <mxCell id="18" style="edgeStyle=entityRelationEdgeStyle;html=1;entryX=0;entryY=0.5;entryDx=0;entryDy=0;fontColor=#FFFFFF;" edge="1" parent="1" source="5" target="17">
                    <mxGeometry relative="1" as="geometry"/>
                </mxCell>
                <mxCell id="19" value="feature / fix" style="edgeLabel;html=1;align=center;verticalAlign=middle;resizable=0;points=[];fontColor=#FFFFFF;" vertex="1" connectable="0" parent="18">
                    <mxGeometry x="0.0088" y="2" relative="1" as="geometry">
                        <mxPoint as="offset"/>
                    </mxGeometry>
                </mxCell>
                <mxCell id="21" style="edgeStyle=entityRelationEdgeStyle;html=1;fontColor=#FFFFFF;" edge="1" parent="1" source="5" target="20">
                    <mxGeometry relative="1" as="geometry"/>
                </mxCell>
                <mxCell id="22" value="fix" style="edgeLabel;html=1;align=center;verticalAlign=middle;resizable=0;points=[];fontColor=#FFFFFF;" vertex="1" connectable="0" parent="21">
                    <mxGeometry x="0.0466" y="-2" relative="1" as="geometry">
                        <mxPoint as="offset"/>
                    </mxGeometry>
                </mxCell>
                <mxCell id="5" value="prj--portfolio-website" style="dashed=0;outlineConnect=0;html=1;align=center;labelPosition=center;verticalLabelPosition=bottom;verticalAlign=top;shape=mxgraph.weblogos.github;fontColor=#FFFFFF;" vertex="1" parent="1">
                    <mxGeometry x="60" y="60.63" width="75" height="75" as="geometry"/>
                </mxCell>
                <mxCell id="136" style="edgeStyle=entityRelationEdgeStyle;html=1;fontColor=#FFFFFF;startArrow=none;startFill=0;endArrow=block;endFill=1;" edge="1" parent="1" source="6" target="135">
                    <mxGeometry relative="1" as="geometry"/>
                </mxCell>
                <mxCell id="6" value="content--paulserban.eu" style="dashed=0;outlineConnect=0;html=1;align=center;labelPosition=center;verticalLabelPosition=bottom;verticalAlign=top;shape=mxgraph.weblogos.github;fontColor=#FFFFFF;" vertex="1" parent="1">
                    <mxGeometry x="80" y="792.5" width="75" height="75" as="geometry"/>
                </mxCell>
                <mxCell id="29" style="edgeStyle=none;html=1;entryX=0.5;entryY=0;entryDx=0;entryDy=0;fontColor=#FFFFFF;" edge="1" parent="1" source="17" target="20">
                    <mxGeometry relative="1" as="geometry"/>
                </mxCell>
                <mxCell id="74" style="edgeStyle=none;html=1;entryX=0;entryY=0.5;entryDx=0;entryDy=0;fontColor=#FFFFFF;" edge="1" parent="1" source="17" target="73">
                    <mxGeometry relative="1" as="geometry"/>
                </mxCell>
                <mxCell id="17" value="develop (branch)" style="ellipse;whiteSpace=wrap;html=1;aspect=fixed;fontColor=#FFFFFF;" vertex="1" parent="1">
                    <mxGeometry x="390" y="11.629999999999999" width="80" height="80" as="geometry"/>
                </mxCell>
                <mxCell id="26" style="edgeStyle=none;html=1;fontColor=#FFFFFF;" edge="1" parent="1" source="20" target="24">
                    <mxGeometry relative="1" as="geometry"/>
                </mxCell>
                <mxCell id="109" style="edgeStyle=entityRelationEdgeStyle;html=1;fontColor=#FFFFFF;" edge="1" parent="1" source="20" target="80">
                    <mxGeometry relative="1" as="geometry"/>
                </mxCell>
                <mxCell id="20" value="release (branch)" style="ellipse;whiteSpace=wrap;html=1;aspect=fixed;fontColor=#FFFFFF;" vertex="1" parent="1">
                    <mxGeometry x="390" y="186.63" width="80" height="80" as="geometry"/>
                </mxCell>
                <mxCell id="28" style="edgeStyle=none;html=1;fontColor=#FFFFFF;" edge="1" parent="1" source="24" target="27">
                    <mxGeometry relative="1" as="geometry"/>
                </mxCell>
                <mxCell id="111" style="edgeStyle=entityRelationEdgeStyle;html=1;fontColor=#FFFFFF;" edge="1" parent="1" source="24" target="110">
                    <mxGeometry relative="1" as="geometry"/>
                </mxCell>
                <mxCell id="24" value="main (branch)" style="ellipse;whiteSpace=wrap;html=1;aspect=fixed;fontColor=#FFFFFF;" vertex="1" parent="1">
                    <mxGeometry x="390" y="368.32" width="80" height="80" as="geometry"/>
                </mxCell>
                <mxCell id="124" style="edgeStyle=entityRelationEdgeStyle;html=1;fontColor=#FFFFFF;startArrow=none;startFill=0;endArrow=block;endFill=1;" edge="1" parent="1" source="27" target="123">
                    <mxGeometry relative="1" as="geometry"/>
                </mxCell>
                <mxCell id="27" value="production (branch)" style="ellipse;whiteSpace=wrap;html=1;aspect=fixed;fontColor=#FFFFFF;" vertex="1" parent="1">
                    <mxGeometry x="390" y="518" width="80" height="80" as="geometry"/>
                </mxCell>
                <mxCell id="30" value="AWS S3&lt;br&gt;Artifacts" style="sketch=0;points=[[0,0,0],[0.25,0,0],[0.5,0,0],[0.75,0,0],[1,0,0],[0,1,0],[0.25,1,0],[0.5,1,0],[0.75,1,0],[1,1,0],[0,0.25,0],[0,0.5,0],[0,0.75,0],[1,0.25,0],[1,0.5,0],[1,0.75,0]];outlineConnect=0;fontColor=#FFFFFF;gradientColor=#60A337;gradientDirection=north;fillColor=#277116;strokeColor=#ffffff;dashed=0;verticalLabelPosition=bottom;verticalAlign=top;align=center;html=1;fontSize=12;fontStyle=0;aspect=fixed;shape=mxgraph.aws4.resourceIcon;resIcon=mxgraph.aws4.s3;" vertex="1" parent="1">
                    <mxGeometry x="1507.13" y="255" width="78" height="78" as="geometry"/>
                </mxCell>
                <mxCell id="68" style="edgeStyle=entityRelationEdgeStyle;html=1;fontColor=#FFFFFF;exitX=0;exitY=0.5;exitDx=0;exitDy=0;exitPerimeter=0;" edge="1" parent="1" source="44" target="65">
                    <mxGeometry relative="1" as="geometry"/>
                </mxCell>
                <mxCell id="69" style="edgeStyle=entityRelationEdgeStyle;html=1;fontColor=#FFFFFF;exitX=0;exitY=0.5;exitDx=0;exitDy=0;exitPerimeter=0;" edge="1" parent="1" source="44" target="30">
                    <mxGeometry relative="1" as="geometry"/>
                </mxCell>
                <mxCell id="78" value="GET code assets" style="edgeLabel;html=1;align=center;verticalAlign=middle;resizable=0;points=[];fontColor=#FFFFFF;" vertex="1" connectable="0" parent="69">
                    <mxGeometry x="0.0741" y="1" relative="1" as="geometry">
                        <mxPoint y="-12" as="offset"/>
                    </mxGeometry>
                </mxCell>
                <mxCell id="153" style="edgeStyle=entityRelationEdgeStyle;html=1;entryX=0;entryY=0.5;entryDx=0;entryDy=0;entryPerimeter=0;dashed=1;fontColor=#FFFFFF;startArrow=none;startFill=0;endArrow=block;endFill=0;" edge="1" parent="1" source="44" target="150">
                    <mxGeometry relative="1" as="geometry"/>
                </mxCell>
                <mxCell id="175" style="edgeStyle=entityRelationEdgeStyle;html=1;fontSize=16;fontColor=#FFFFFF;startArrow=none;startFill=0;endArrow=block;endFill=0;" edge="1" parent="1" source="44" target="169">
                    <mxGeometry relative="1" as="geometry"/>
                </mxCell>
                <mxCell id="176" value="&lt;font style=&quot;font-size: 12px;&quot;&gt;GET S3:::assets.paulserban.eu&lt;/font&gt;" style="edgeLabel;html=1;align=center;verticalAlign=middle;resizable=0;points=[];fontSize=12;fontColor=#FFFFFF;" vertex="1" connectable="0" parent="175">
                    <mxGeometry x="0.1249" relative="1" as="geometry">
                        <mxPoint x="-4" y="-12" as="offset"/>
                    </mxGeometry>
                </mxCell>
                <mxCell id="44" value="CloudFront&lt;br&gt;- HTTP/2 &amp;amp; HTTP/3" style="sketch=0;points=[[0,0,0],[0.25,0,0],[0.5,0,0],[0.75,0,0],[1,0,0],[0,1,0],[0.25,1,0],[0.5,1,0],[0.75,1,0],[1,1,0],[0,0.25,0],[0,0.5,0],[0,0.75,0],[1,0.25,0],[1,0.5,0],[1,0.75,0]];outlineConnect=0;fontColor=#FFFFFF;gradientColor=#945DF2;gradientDirection=north;fillColor=#5A30B5;strokeColor=#ffffff;dashed=0;verticalLabelPosition=bottom;verticalAlign=top;align=center;html=1;fontSize=12;fontStyle=0;aspect=fixed;shape=mxgraph.aws4.resourceIcon;resIcon=mxgraph.aws4.cloudfront;" vertex="1" parent="1">
                    <mxGeometry x="1890" y="351" width="78" height="78" as="geometry"/>
                </mxCell>
                <mxCell id="67" style="edgeStyle=none;html=1;entryX=1;entryY=0.5;entryDx=0;entryDy=0;entryPerimeter=0;fontColor=#FFFFFF;" edge="1" parent="1" source="45" target="44">
                    <mxGeometry relative="1" as="geometry"/>
                </mxCell>
                <mxCell id="45" value="Route53" style="sketch=0;points=[[0,0,0],[0.25,0,0],[0.5,0,0],[0.75,0,0],[1,0,0],[0,1,0],[0.25,1,0],[0.5,1,0],[0.75,1,0],[1,1,0],[0,0.25,0],[0,0.5,0],[0,0.75,0],[1,0.25,0],[1,0.5,0],[1,0.75,0]];outlineConnect=0;fontColor=#FFFFFF;gradientColor=#945DF2;gradientDirection=north;fillColor=#5A30B5;strokeColor=#ffffff;dashed=0;verticalLabelPosition=bottom;verticalAlign=top;align=center;html=1;fontSize=12;fontStyle=0;aspect=fixed;shape=mxgraph.aws4.resourceIcon;resIcon=mxgraph.aws4.route_53;" vertex="1" parent="1">
                    <mxGeometry x="2010" y="351" width="78" height="78" as="geometry"/>
                </mxCell>
                <mxCell id="121" style="edgeStyle=entityRelationEdgeStyle;html=1;entryX=1;entryY=0.75;entryDx=0;entryDy=0;fontColor=#FFFFFF;dashed=1;endArrow=none;endFill=0;startArrow=block;startFill=0;" edge="1" parent="1" source="166" target="110">
                    <mxGeometry relative="1" as="geometry"/>
                </mxCell>
                <mxCell id="122" value="GET S3:::content.paulserban.eu" style="edgeLabel;html=1;align=center;verticalAlign=middle;resizable=0;points=[];fontColor=#FFFFFF;" vertex="1" connectable="0" parent="121">
                    <mxGeometry x="-0.0323" y="-2" relative="1" as="geometry">
                        <mxPoint as="offset"/>
                    </mxGeometry>
                </mxCell>
                <mxCell id="49" style="edgeStyle=entityRelationEdgeStyle;html=1;fontColor=#FFFFFF;" edge="1" parent="1" source="48" target="45">
                    <mxGeometry relative="1" as="geometry"/>
                </mxCell>
                <mxCell id="50" value="develop.paulserban.eu" style="edgeLabel;html=1;align=center;verticalAlign=middle;resizable=0;points=[];fontColor=#FFFFFF;" vertex="1" connectable="0" parent="49">
                    <mxGeometry x="-0.2961" y="-1" relative="1" as="geometry">
                        <mxPoint x="-10" as="offset"/>
                    </mxGeometry>
                </mxCell>
                <mxCell id="48" value="QG Developer" style="sketch=0;outlineConnect=0;fontColor=#FFFFFF;gradientColor=none;strokeColor=#232F3E;fillColor=#ffffff;dashed=0;verticalLabelPosition=bottom;verticalAlign=top;align=center;html=1;fontSize=12;fontStyle=0;aspect=fixed;shape=mxgraph.aws4.resourceIcon;resIcon=mxgraph.aws4.user;" vertex="1" parent="1">
                    <mxGeometry x="2715" y="104" width="60" height="60" as="geometry"/>
                </mxCell>
                <mxCell id="53" style="edgeStyle=entityRelationEdgeStyle;html=1;fontColor=#FFFFFF;entryX=1;entryY=0.5;entryDx=0;entryDy=0;entryPerimeter=0;" edge="1" parent="1" source="55" target="45">
                    <mxGeometry relative="1" as="geometry">
                        <mxPoint x="2045.1300000000006" y="609.9999999999998" as="targetPoint"/>
                    </mxGeometry>
                </mxCell>
                <mxCell id="54" value="test.paulserban.eu" style="edgeLabel;html=1;align=center;verticalAlign=middle;resizable=0;points=[];fontColor=#FFFFFF;" vertex="1" connectable="0" parent="53">
                    <mxGeometry x="-0.2961" y="-1" relative="1" as="geometry">
                        <mxPoint x="-10" y="74" as="offset"/>
                    </mxGeometry>
                </mxCell>
                <mxCell id="55" value="QA" style="sketch=0;outlineConnect=0;fontColor=#FFFFFF;gradientColor=none;strokeColor=#232F3E;fillColor=#ffffff;dashed=0;verticalLabelPosition=bottom;verticalAlign=top;align=center;html=1;fontSize=12;fontStyle=0;aspect=fixed;shape=mxgraph.aws4.resourceIcon;resIcon=mxgraph.aws4.user;" vertex="1" parent="1">
                    <mxGeometry x="2715" y="233" width="60" height="60" as="geometry"/>
                </mxCell>
                <mxCell id="58" style="edgeStyle=entityRelationEdgeStyle;html=1;fontColor=#FFFFFF;entryX=1;entryY=0.5;entryDx=0;entryDy=0;entryPerimeter=0;" edge="1" parent="1" source="60" target="45">
                    <mxGeometry relative="1" as="geometry">
                        <mxPoint x="2140" y="650" as="targetPoint"/>
                    </mxGeometry>
                </mxCell>
                <mxCell id="59" value="stage.paulserban.eu" style="edgeLabel;html=1;align=center;verticalAlign=middle;resizable=0;points=[];fontColor=#FFFFFF;" vertex="1" connectable="0" parent="58">
                    <mxGeometry x="-0.2961" y="-1" relative="1" as="geometry">
                        <mxPoint x="-8" y="-17" as="offset"/>
                    </mxGeometry>
                </mxCell>
                <mxCell id="60" value="Author / Editor" style="sketch=0;outlineConnect=0;fontColor=#FFFFFF;gradientColor=none;strokeColor=#232F3E;fillColor=#ffffff;dashed=0;verticalLabelPosition=bottom;verticalAlign=top;align=center;html=1;fontSize=12;fontStyle=0;aspect=fixed;shape=mxgraph.aws4.resourceIcon;resIcon=mxgraph.aws4.user;" vertex="1" parent="1">
                    <mxGeometry x="2715" y="514" width="60" height="60" as="geometry"/>
                </mxCell>
                <mxCell id="65" value="SSL Certificate" style="sketch=0;points=[[0,0,0],[0.25,0,0],[0.5,0,0],[0.75,0,0],[1,0,0],[0,1,0],[0.25,1,0],[0.5,1,0],[0.75,1,0],[1,1,0],[0,0.25,0],[0,0.5,0],[0,0.75,0],[1,0.25,0],[1,0.5,0],[1,0.75,0]];outlineConnect=0;fontColor=#FFFFFF;gradientColor=#F54749;gradientDirection=north;fillColor=#C7131F;strokeColor=#ffffff;dashed=0;verticalLabelPosition=bottom;verticalAlign=top;align=center;html=1;fontSize=12;fontStyle=0;aspect=fixed;shape=mxgraph.aws4.resourceIcon;resIcon=mxgraph.aws4.certificate_manager_3;" vertex="1" parent="1">
                    <mxGeometry x="1728" y="161" width="78" height="78" as="geometry"/>
                </mxCell>
                <mxCell id="75" style="edgeStyle=entityRelationEdgeStyle;html=1;fontColor=#FFFFFF;" edge="1" parent="1" source="73" target="30">
                    <mxGeometry relative="1" as="geometry"/>
                </mxCell>
                <mxCell id="76" value="POST S3:::develop.paulserban.eu" style="edgeLabel;html=1;align=center;verticalAlign=middle;resizable=0;points=[];fontColor=#FFFFFF;" vertex="1" connectable="0" parent="75">
                    <mxGeometry x="-0.2321" y="-1" relative="1" as="geometry">
                        <mxPoint x="152" y="57" as="offset"/>
                    </mxGeometry>
                </mxCell>
                <mxCell id="73" value="&lt;b&gt;Github Actions&lt;/b&gt;&lt;br&gt;- format check + lint&lt;br&gt;- unit test&lt;br&gt;- build w. mock content&lt;br&gt;- package&lt;br&gt;- deploy: push package to AWS S3 + invalidate AWS CloudFront cache" style="shape=process;whiteSpace=wrap;html=1;backgroundOutline=1;fontColor=#FFFFFF;align=left;" vertex="1" parent="1">
                    <mxGeometry x="560" y="-3.87" width="250" height="111" as="geometry"/>
                </mxCell>
                <mxCell id="82" style="edgeStyle=entityRelationEdgeStyle;html=1;fontColor=#FFFFFF;" edge="1" parent="1" source="80" target="30">
                    <mxGeometry relative="1" as="geometry"/>
                </mxCell>
                <mxCell id="83" value="POST S3:::test.paulserban.eu" style="edgeLabel;html=1;align=center;verticalAlign=middle;resizable=0;points=[];fontColor=#FFFFFF;" vertex="1" connectable="0" parent="82">
                    <mxGeometry x="-0.0899" y="-1" relative="1" as="geometry">
                        <mxPoint x="103" y="9" as="offset"/>
                    </mxGeometry>
                </mxCell>
                <mxCell id="80" value="&lt;b&gt;Github Actions&lt;/b&gt;&lt;br&gt;- format check + lint&lt;br&gt;- unit test&lt;br&gt;- build w. test content&lt;br&gt;- integration test&lt;br&gt;- package&lt;br&gt;- deploy: push package to AWS S3 + invalidate AWS CloudFront cache&lt;br&gt;- e2e testing w. cypress" style="shape=process;whiteSpace=wrap;html=1;backgroundOutline=1;fontColor=#FFFFFF;align=left;" vertex="1" parent="1">
                    <mxGeometry x="560" y="150.63" width="250" height="150" as="geometry"/>
                </mxCell>
                <mxCell id="105" value="" style="group" vertex="1" connectable="0" parent="1">
                    <mxGeometry x="2670" y="333" width="150" height="145" as="geometry"/>
                </mxCell>
                <mxCell id="103" value="" style="sketch=0;html=1;aspect=fixed;strokeColor=none;shadow=0;align=left;verticalAlign=top;fillColor=#3B8DF1;shape=mxgraph.gcp2.biomedical_test_tube;fontColor=#FFFFFF;" vertex="1" parent="105">
                    <mxGeometry x="59.5" width="31" height="100" as="geometry"/>
                </mxCell>
                <mxCell id="104" value="&lt;span style=&quot;text-align: left;&quot;&gt;E2E Testing + UI testing &lt;br&gt;w. Cypress&lt;/span&gt;" style="text;html=1;align=center;verticalAlign=middle;resizable=0;points=[];autosize=1;strokeColor=none;fillColor=none;fontColor=#FFFFFF;" vertex="1" parent="105">
                    <mxGeometry y="105" width="150" height="40" as="geometry"/>
                </mxCell>
                <mxCell id="112" style="edgeStyle=entityRelationEdgeStyle;html=1;fontColor=#FFFFFF;exitX=1;exitY=0.25;exitDx=0;exitDy=0;" edge="1" parent="1" source="110" target="30">
                    <mxGeometry relative="1" as="geometry"/>
                </mxCell>
                <mxCell id="113" value="POST S3:::stage.paulserban.eu" style="edgeLabel;html=1;align=center;verticalAlign=middle;resizable=0;points=[];fontColor=#FFFFFF;" vertex="1" connectable="0" parent="112">
                    <mxGeometry x="0.0076" y="-3" relative="1" as="geometry">
                        <mxPoint x="69" y="-17" as="offset"/>
                    </mxGeometry>
                </mxCell>
                <mxCell id="110" value="&lt;b&gt;Github Actions&lt;/b&gt;&lt;br&gt;- format check + lint&lt;br&gt;- unit test&lt;br&gt;- build w. production content&lt;br&gt;- integration test&lt;br&gt;- package&lt;br&gt;- deploy: push package to AWS S3 + invalidate AWS CloudFront cache" style="shape=process;whiteSpace=wrap;html=1;backgroundOutline=1;fontColor=#FFFFFF;align=left;" vertex="1" parent="1">
                    <mxGeometry x="560" y="346.63" width="250" height="123.37" as="geometry"/>
                </mxCell>
                <mxCell id="125" style="edgeStyle=entityRelationEdgeStyle;html=1;fontColor=#FFFFFF;startArrow=none;startFill=0;endArrow=block;endFill=1;exitX=1;exitY=0.25;exitDx=0;exitDy=0;" edge="1" parent="1" source="123" target="30">
                    <mxGeometry relative="1" as="geometry">
                        <mxPoint x="1560" y="669" as="targetPoint"/>
                    </mxGeometry>
                </mxCell>
                <mxCell id="131" value="POST S3:::paulserban.eu" style="edgeLabel;html=1;align=center;verticalAlign=middle;resizable=0;points=[];fontColor=#FFFFFF;" vertex="1" connectable="0" parent="125">
                    <mxGeometry x="-0.0493" y="3" relative="1" as="geometry">
                        <mxPoint x="80" y="-44" as="offset"/>
                    </mxGeometry>
                </mxCell>
                <mxCell id="143" style="edgeStyle=entityRelationEdgeStyle;html=1;fontColor=#FFFFFF;startArrow=none;startFill=0;endArrow=block;endFill=0;exitX=1;exitY=0.75;exitDx=0;exitDy=0;dashed=1;" edge="1" parent="1" source="123" target="166">
                    <mxGeometry relative="1" as="geometry"/>
                </mxCell>
                <mxCell id="123" value="&lt;b&gt;Github Actions&lt;/b&gt;&lt;br&gt;- format check + lint&lt;br&gt;- unit test&lt;br&gt;- build w. production content&lt;br&gt;- integration test&lt;br&gt;- package&lt;br&gt;- deploy: push package to AWS S3 + invalidate AWS CloudFront cache" style="shape=process;whiteSpace=wrap;html=1;backgroundOutline=1;fontColor=#FFFFFF;align=left;" vertex="1" parent="1">
                    <mxGeometry x="560" y="496" width="250" height="124" as="geometry"/>
                </mxCell>
                <mxCell id="127" style="edgeStyle=entityRelationEdgeStyle;html=1;entryX=1;entryY=0.5;entryDx=0;entryDy=0;entryPerimeter=0;fontColor=#FFFFFF;startArrow=none;startFill=0;endArrow=block;endFill=1;" edge="1" parent="1" source="103" target="45">
                    <mxGeometry relative="1" as="geometry"/>
                </mxCell>
                <mxCell id="128" value="test.paulserban.eu" style="edgeLabel;html=1;align=center;verticalAlign=middle;resizable=0;points=[];fontColor=#FFFFFF;" vertex="1" connectable="0" parent="1">
                    <mxGeometry x="2319.998643788319" y="199.9962584911856" as="geometry"/>
                </mxCell>
                <mxCell id="133" style="edgeStyle=entityRelationEdgeStyle;html=1;fontColor=#FFFFFF;startArrow=none;startFill=0;endArrow=block;endFill=1;" edge="1" parent="1" source="132" target="45">
                    <mxGeometry relative="1" as="geometry"/>
                </mxCell>
                <mxCell id="134" value="paulserban.eu" style="edgeLabel;html=1;align=center;verticalAlign=middle;resizable=0;points=[];fontColor=#FFFFFF;" vertex="1" connectable="0" parent="133">
                    <mxGeometry x="-0.3428" relative="1" as="geometry">
                        <mxPoint x="-1" as="offset"/>
                    </mxGeometry>
                </mxCell>
                <mxCell id="132" value="User" style="sketch=0;outlineConnect=0;fontColor=#FFFFFF;gradientColor=none;strokeColor=#232F3E;fillColor=#ffffff;dashed=0;verticalLabelPosition=bottom;verticalAlign=top;align=center;html=1;fontSize=12;fontStyle=0;aspect=fixed;shape=mxgraph.aws4.resourceIcon;resIcon=mxgraph.aws4.user;" vertex="1" parent="1">
                    <mxGeometry x="2715" y="664" width="60" height="60" as="geometry"/>
                </mxCell>
                <mxCell id="140" style="edgeStyle=entityRelationEdgeStyle;html=1;fontColor=#FFFFFF;startArrow=none;startFill=0;endArrow=block;endFill=1;" edge="1" parent="1" source="135" target="139">
                    <mxGeometry relative="1" as="geometry"/>
                </mxCell>
                <mxCell id="135" value="main (branch)" style="ellipse;whiteSpace=wrap;html=1;aspect=fixed;fontColor=#FFFFFF;" vertex="1" parent="1">
                    <mxGeometry x="400" y="790" width="80" height="80" as="geometry"/>
                </mxCell>
                <mxCell id="141" style="edgeStyle=entityRelationEdgeStyle;html=1;fontColor=#FFFFFF;startArrow=none;startFill=0;endArrow=block;endFill=1;entryX=0;entryY=0.75;entryDx=0;entryDy=0;entryPerimeter=0;" edge="1" parent="1" source="139" target="166">
                    <mxGeometry relative="1" as="geometry"/>
                </mxCell>
                <mxCell id="142" value="POST S3:::content.paulserban.eu" style="edgeLabel;html=1;align=center;verticalAlign=middle;resizable=0;points=[];fontColor=#FFFFFF;" vertex="1" connectable="0" parent="141">
                    <mxGeometry x="-0.2527" y="-3" relative="1" as="geometry">
                        <mxPoint x="-42" y="9" as="offset"/>
                    </mxGeometry>
                </mxCell>
                <mxCell id="139" value="&lt;b&gt;Github Actions&lt;/b&gt;&lt;br&gt;- format check + lint&lt;br&gt;- package&lt;br&gt;- deploy: push package to AWS S3&amp;nbsp;" style="shape=process;whiteSpace=wrap;html=1;backgroundOutline=1;fontColor=#FFFFFF;align=left;" vertex="1" parent="1">
                    <mxGeometry x="570" y="791.25" width="250" height="77.5" as="geometry"/>
                </mxCell>
                <mxCell id="144" value="GET S3:::content.paulserban.eu" style="edgeLabel;html=1;align=center;verticalAlign=middle;resizable=0;points=[];fontColor=#FFFFFF;" vertex="1" connectable="0" parent="1">
                    <mxGeometry x="1030.0001175261534" y="546.1274847823329" as="geometry"/>
                </mxCell>
                <mxCell id="157" style="edgeStyle=entityRelationEdgeStyle;html=1;entryX=1;entryY=0.5;entryDx=0;entryDy=0;entryPerimeter=0;fontColor=#FFFFFF;startArrow=none;startFill=0;endArrow=block;endFill=0;" edge="1" parent="1" source="146" target="155">
                    <mxGeometry relative="1" as="geometry"/>
                </mxCell>
                <mxCell id="146" value="Contact Form Lambda" style="sketch=0;points=[[0,0,0],[0.25,0,0],[0.5,0,0],[0.75,0,0],[1,0,0],[0,1,0],[0.25,1,0],[0.5,1,0],[0.75,1,0],[1,1,0],[0,0.25,0],[0,0.5,0],[0,0.75,0],[1,0.25,0],[1,0.5,0],[1,0.75,0]];outlineConnect=0;fontColor=#FFFFFF;gradientColor=#F78E04;gradientDirection=north;fillColor=#D05C17;strokeColor=#ffffff;dashed=0;verticalLabelPosition=bottom;verticalAlign=top;align=center;html=1;fontSize=12;fontStyle=0;aspect=fixed;shape=mxgraph.aws4.resourceIcon;resIcon=mxgraph.aws4.lambda;" vertex="1" parent="1">
                    <mxGeometry x="1841" y="967.5" width="78" height="78" as="geometry"/>
                </mxCell>
                <mxCell id="147" style="edgeStyle=orthogonalEdgeStyle;html=1;fontColor=#FFFFFF;" edge="1" parent="1" source="148" target="162">
                    <mxGeometry relative="1" as="geometry"/>
                </mxCell>
                <mxCell id="148" value="API Gtaeway Trigger" style="sketch=0;points=[[0,0,0],[0.25,0,0],[0.5,0,0],[0.75,0,0],[1,0,0],[0,1,0],[0.25,1,0],[0.5,1,0],[0.75,1,0],[1,1,0],[0,0.25,0],[0,0.5,0],[0,0.75,0],[1,0.25,0],[1,0.5,0],[1,0.75,0]];outlineConnect=0;fontColor=#FFFFFF;gradientColor=#945DF2;gradientDirection=north;fillColor=#5A30B5;strokeColor=#ffffff;dashed=0;verticalLabelPosition=bottom;verticalAlign=top;align=center;html=1;fontSize=12;fontStyle=0;aspect=fixed;shape=mxgraph.aws4.resourceIcon;resIcon=mxgraph.aws4.api_gateway;" vertex="1" parent="1">
                    <mxGeometry x="1841" y="646" width="78" height="78" as="geometry"/>
                </mxCell>
                <mxCell id="149" style="edgeStyle=orthogonalEdgeStyle;html=1;entryX=0.5;entryY=0;entryDx=0;entryDy=0;entryPerimeter=0;fontColor=#FFFFFF;" edge="1" parent="1" source="150" target="148">
                    <mxGeometry relative="1" as="geometry"/>
                </mxCell>
                <mxCell id="158" style="edgeStyle=entityRelationEdgeStyle;html=1;fontColor=#FFFFFF;startArrow=none;startFill=0;endArrow=block;endFill=0;" edge="1" parent="1" source="150" target="152">
                    <mxGeometry relative="1" as="geometry"/>
                </mxCell>
                <mxCell id="159" value="GET reCaptcha Token" style="edgeLabel;html=1;align=center;verticalAlign=middle;resizable=0;points=[];fontColor=#FFFFFF;" vertex="1" connectable="0" parent="158">
                    <mxGeometry x="-0.0159" y="-3" relative="1" as="geometry">
                        <mxPoint x="-1" as="offset"/>
                    </mxGeometry>
                </mxCell>
                <mxCell id="150" value="Contact Form" style="html=1;strokeColor=none;fillColor=#0079D6;labelPosition=center;verticalLabelPosition=middle;verticalAlign=top;align=center;fontSize=12;outlineConnect=0;spacingTop=-6;fontColor=#FFFFFF;sketch=0;shape=mxgraph.sitemap.form;" vertex="1" parent="1">
                    <mxGeometry x="2207.13" y="590" width="112.87" height="53.87" as="geometry"/>
                </mxCell>
                <mxCell id="152" value="&lt;font style=&quot;font-size: 16px;&quot;&gt;Google &lt;br&gt;reCaptcha&lt;/font&gt;" style="strokeWidth=1;shadow=0;dashed=0;align=center;html=1;shape=mxgraph.mockup.text.captcha;fontColor=#FFFFFF;fontSize=25;strokeColor=#666666;mainText=" vertex="1" parent="1">
                    <mxGeometry x="2218.56" y="833.44" width="90" height="65.12" as="geometry"/>
                </mxCell>
                <mxCell id="154" style="edgeStyle=orthogonalEdgeStyle;html=1;fontColor=#FFFFFF;" edge="1" parent="1" source="155" target="156">
                    <mxGeometry relative="1" as="geometry"/>
                </mxCell>
                <mxCell id="155" value="AWS SES - Send Email" style="outlineConnect=0;dashed=0;verticalLabelPosition=bottom;verticalAlign=top;align=center;html=1;shape=mxgraph.aws3.ses;fillColor=#D9A741;gradientColor=none;" vertex="1" parent="1">
                    <mxGeometry x="1674" y="960" width="79.5" height="93" as="geometry"/>
                </mxCell>
                <mxCell id="156" value="paul.alex.serban@gmail.com" style="sketch=0;points=[[0,0,0],[0.25,0,0],[0.5,0,0],[0.75,0,0],[1,0,0],[0,1,0],[0.25,1,0],[0.5,1,0],[0.75,1,0],[1,1,0],[0,0.25,0],[0,0.5,0],[0,0.75,0],[1,0.25,0],[1,0.5,0],[1,0.75,0]];outlineConnect=0;fontColor=#FFFFFF;gradientColor=#FF5252;gradientDirection=north;fillColor=#C7131F;strokeColor=#ffffff;dashed=0;verticalLabelPosition=bottom;verticalAlign=top;align=center;html=1;fontSize=12;fontStyle=0;aspect=fixed;shape=mxgraph.aws4.resourceIcon;resIcon=mxgraph.aws4.workmail;" vertex="1" parent="1">
                    <mxGeometry x="1507.13" y="967.5" width="78" height="78" as="geometry"/>
                </mxCell>
                <mxCell id="163" style="edgeStyle=entityRelationEdgeStyle;html=1;fontSize=16;fontColor=#FFFFFF;startArrow=none;startFill=0;endArrow=block;endFill=0;" edge="1" parent="1" source="162" target="152">
                    <mxGeometry relative="1" as="geometry"/>
                </mxCell>
                <mxCell id="164" value="POST reCaptcha Token" style="edgeLabel;html=1;align=center;verticalAlign=middle;resizable=0;points=[];fontSize=16;fontColor=#FFFFFF;" vertex="1" connectable="0" parent="163">
                    <mxGeometry x="-0.0831" y="3" relative="1" as="geometry">
                        <mxPoint as="offset"/>
                    </mxGeometry>
                </mxCell>
                <mxCell id="165" style="edgeStyle=entityRelationEdgeStyle;html=1;fontSize=16;fontColor=#FFFFFF;startArrow=none;startFill=0;endArrow=block;endFill=0;" edge="1" parent="1" source="162" target="146">
                    <mxGeometry relative="1" as="geometry"/>
                </mxCell>
                <mxCell id="162" value="From Validation Lambda" style="sketch=0;points=[[0,0,0],[0.25,0,0],[0.5,0,0],[0.75,0,0],[1,0,0],[0,1,0],[0.25,1,0],[0.5,1,0],[0.75,1,0],[1,1,0],[0,0.25,0],[0,0.5,0],[0,0.75,0],[1,0.25,0],[1,0.5,0],[1,0.75,0]];outlineConnect=0;fontColor=#FFFFFF;gradientColor=#F78E04;gradientDirection=north;fillColor=#D05C17;strokeColor=#ffffff;dashed=0;verticalLabelPosition=bottom;verticalAlign=top;align=center;html=1;fontSize=12;fontStyle=0;aspect=fixed;shape=mxgraph.aws4.resourceIcon;resIcon=mxgraph.aws4.lambda;" vertex="1" parent="1">
                    <mxGeometry x="1841" y="827" width="78" height="78" as="geometry"/>
                </mxCell>
                <mxCell id="166" value="AWS S3&lt;br&gt;Content" style="sketch=0;points=[[0,0,0],[0.25,0,0],[0.5,0,0],[0.75,0,0],[1,0,0],[0,1,0],[0.25,1,0],[0.5,1,0],[0.75,1,0],[1,1,0],[0,0.25,0],[0,0.5,0],[0,0.75,0],[1,0.25,0],[1,0.5,0],[1,0.75,0]];outlineConnect=0;fontColor=#FFFFFF;gradientColor=#60A337;gradientDirection=north;fillColor=#277116;strokeColor=#ffffff;dashed=0;verticalLabelPosition=bottom;verticalAlign=top;align=center;html=1;fontSize=12;fontStyle=0;aspect=fixed;shape=mxgraph.aws4.resourceIcon;resIcon=mxgraph.aws4.s3;" vertex="1" parent="1">
                    <mxGeometry x="1507.13" y="790" width="78" height="78" as="geometry"/>
                </mxCell>
                <mxCell id="169" value="AWS S3&lt;br&gt;Media Assets" style="sketch=0;points=[[0,0,0],[0.25,0,0],[0.5,0,0],[0.75,0,0],[1,0,0],[0,1,0],[0.25,1,0],[0.5,1,0],[0.75,1,0],[1,1,0],[0,0.25,0],[0,0.5,0],[0,0.75,0],[1,0.25,0],[1,0.5,0],[1,0.75,0]];outlineConnect=0;fontColor=#FFFFFF;gradientColor=#60A337;gradientDirection=north;fillColor=#277116;strokeColor=#ffffff;dashed=0;verticalLabelPosition=bottom;verticalAlign=top;align=center;html=1;fontSize=12;fontStyle=0;aspect=fixed;shape=mxgraph.aws4.resourceIcon;resIcon=mxgraph.aws4.s3;" vertex="1" parent="1">
                    <mxGeometry x="1507.13" y="620" width="78" height="78" as="geometry"/>
                </mxCell>
                <mxCell id="179" style="edgeStyle=entityRelationEdgeStyle;html=1;fontSize=12;fontColor=#FFFFFF;startArrow=none;startFill=0;endArrow=block;endFill=1;" edge="1" parent="1" source="177" target="169">
                    <mxGeometry relative="1" as="geometry"/>
                </mxCell>
                <mxCell id="180" value="POST S3:::assets.paulserban.eu" style="edgeLabel;html=1;align=center;verticalAlign=middle;resizable=0;points=[];fontSize=12;fontColor=#FFFFFF;" vertex="1" connectable="0" parent="179">
                    <mxGeometry x="-0.2696" y="-5" relative="1" as="geometry">
                        <mxPoint x="85" y="-23" as="offset"/>
                    </mxGeometry>
                </mxCell>
                <mxCell id="177" value="" style="sketch=0;outlineConnect=0;fontColor=#232F3E;gradientColor=none;fillColor=#D45B07;strokeColor=none;dashed=0;verticalLabelPosition=bottom;verticalAlign=top;align=center;html=1;fontSize=12;fontStyle=0;aspect=fixed;pointerEvents=1;shape=mxgraph.aws4.container_registry_image;" vertex="1" parent="1">
                    <mxGeometry x="416" y="710" width="48" height="48" as="geometry"/>
                </mxCell>
                <mxCell id="182" style="edgeStyle=entityRelationEdgeStyle;html=1;fontSize=12;fontColor=#FFFFFF;startArrow=none;startFill=0;endArrow=block;endFill=1;" edge="1" parent="1" source="181" target="5">
                    <mxGeometry relative="1" as="geometry"/>
                </mxCell>
                <mxCell id="181" value="" style="aspect=fixed;html=1;points=[];align=center;image;fontSize=12;image=img/lib/azure2/general/Code.svg;" vertex="1" parent="1">
                    <mxGeometry x="-70" y="72.13" width="64" height="52" as="geometry"/>
                </mxCell>
            </root>
        </mxGraphModel>
    </diagram>
</mxfile>